<?xml version="1.0" encoding="UTF-8"?>
<svg width="20" height="20" fill="none" version="1.1" viewBox="0 0 20 20" xmlns="http://www.w3.org/2000/svg">
 <path d="m10.024 0.37558c-5.3282 0-9.6492 4.3205-9.6492 9.6506 0 4.2631 2.7649 7.8803 6.5993 9.1567 0.48282 0.08825 0.65878-0.20964 0.65878-0.4656 0-0.22934-0.00829-0.8359-0.013031-1.6411-2.6842 0.583-3.2506-1.2938-3.2506-1.2938-0.43898-1.1149-1.0717-1.4117-1.0717-1.4117-0.87619-0.59831 0.066353-0.58646 0.066353-0.58646 0.96861 0.06815 1.478 0.99469 1.478 0.99469 0.86079 1.4744 2.2589 1.0485 2.8086 0.80142 0.087676-0.6232 0.33708-1.0486 0.61255-1.2897-2.1427-0.24412-4.3957-1.0717-4.3957-4.7696 0-1.0539 0.37618-1.9147 0.99345-2.5894-0.099523-0.24407-0.43067-1.2251 0.094784-2.5539 0 0 0.80981-0.25949 2.6534 0.98875 0.76952-0.21386 1.5954-0.32049 2.4159-0.32464 0.81988 0.00417 1.6452 0.11078 2.4159 0.32464 1.8424-1.2482 2.6511-0.98875 2.6511-0.98875 0.5267 1.3288 0.19553 2.3099 0.09663 2.5539 0.61841 0.67475 0.99163 1.5355 0.99163 2.5894 0 3.7074-2.2565 4.5234-4.4058 4.7616 0.34597 0.29802 0.65461 0.88688 0.65461 1.7873 0 1.2897-0.01186 2.3305-0.01186 2.6469 0 0.25822 0.17418 0.55864 0.66353 0.4644 3.8317-1.279 6.594-4.8934 6.594-9.1559 0-5.33-4.3211-9.6506-9.651-9.6506z" clip-rule="evenodd" fill="#fff" fill-rule="evenodd" stroke-width="1.331"/>
</svg>
