<?xml version="1.0" encoding="UTF-8"?>
<svg width="15" height="15" fill="none" version="1.1" viewBox="0 0 15 15" xmlns="http://www.w3.org/2000/svg">
 <path d="m7.4993 0.25c-4.003 0-7.2493 3.2459-7.2493 7.2502 0 3.2028 2.0772 5.9204 4.9581 6.8795 0.36274 0.0663 0.49492-0.1575 0.49492-0.3498 0-0.1723-0.00623-0.628-0.00979-1.2329-2.0166 0.438-2.4421-0.972-2.4421-0.972-0.3298-0.8376-0.80513-1.0606-0.80513-1.0606-0.65826-0.4495 0.04985-0.4406 0.04985-0.4406 0.72769 0.0512 1.1104 0.7473 1.1104 0.7473 0.64669 1.1077 1.6971 0.7877 2.1101 0.6021 0.06587-0.4682 0.25324-0.7878 0.4602-0.9689-1.6098-0.1834-3.3024-0.80512-3.3024-3.5833 0-0.79179 0.28262-1.4385 0.74638-1.9454-0.07477-0.18337-0.32356-0.92042 0.07121-1.9187 0 0 0.60841-0.19495 1.9935 0.74282 0.57815-0.16067 1.1986-0.24078 1.815-0.2439 0.61598 0.00312 1.236 0.08323 1.815 0.2439 1.3842-0.93777 1.9917-0.74282 1.9917-0.74282 0.3957 0.9983 0.1469 1.7354 0.0726 1.9187 0.4646 0.50694 0.745 1.1536 0.745 1.9454 0 2.7853-1.6953 3.3982-3.31 3.5775 0.25992 0.2239 0.49181 0.6663 0.49181 1.3428 0 0.9689-0.00891 1.7509-0.00891 1.9886 0 0.194 0.13086 0.4197 0.49849 0.3489 2.8787-0.9609 4.9541-3.6763 4.9541-6.8786 0-4.0043-3.2464-7.2502-7.2507-7.2502z" clip-rule="evenodd" fill="#fff" fill-rule="evenodd"/>
</svg>
