<?xml version="1.0" encoding="UTF-8"?>
<svg width="100" height="100" version="1.1" viewBox="0 0 75 75" xmlns="http://www.w3.org/2000/svg">
 <g transform="matrix(.13393 0 0 .13393 -9.375 4e-8)" fill="#fff">
  <path d="m350 532c138.95 0 252-113.05 252-252s-113.05-252-252-252-252 113.05-252 252 113.05 252 252 252zm0-492.8c132.78 0 240.8 108.02 240.8 240.8s-108.02 240.8-240.8 240.8-240.8-108.02-240.8-240.8 108.02-240.8 240.8-240.8z"/>
  <path d="m240.13 423.28c1.3789 10.707 10.449 19.039 21.527 19.039 12.023 0 21.805-9.7812 21.805-21.805v-129.64c0-12.023-9.7812-21.805-21.805-21.805-11.082 0-20.16 8.3398-21.527 19.059-21.43 1.6758-40.086 13.316-51.309 30.32v-50.602c0-89.062 72.301-161.52 161.17-161.52s161.17 72.453 161.17 161.52v50.992c-11.195-17.215-29.953-29.023-51.547-30.715-1.3711-10.711-10.445-19.059-21.527-19.059-12.023 0-21.805 9.7812-21.805 21.805v129.64c0 12.023 9.7812 21.805 21.805 21.805 11.078 0 20.148-8.332 21.527-19.039 34.914-2.7344 62.512-31.977 62.512-67.602 0-3.4492-0.33984-6.8164-0.83984-10.129 0.62891-0.90625 1.082-1.9414 1.082-3.1289l4e-3 -74.582c0-95.234-77.332-172.71-172.38-172.71-95.043 0-172.38 77.48-172.38 172.71v74.582c0 1.0586 0.375 1.9922 0.88672 2.8398-0.52734 3.4062-0.88672 6.8672-0.88672 10.422 0 35.625 27.594 64.867 62.508 67.602zm10.922-132.41c0-5.8477 4.7617-10.605 10.605-10.605 5.8477 0 10.605 4.7617 10.605 10.605v129.64c0 5.8477-4.7617 10.605-10.605 10.605-5.8477 0-10.605-4.7617-10.605-10.605zm197.64 129.64c0 5.8477-4.7617 10.605-10.605 10.605-5.8477 0-10.605-4.7617-10.605-10.605v-129.64c0-5.8477 4.7617-10.605 10.605-10.605 5.8477 0 10.605 4.7617 10.605 10.605zm11.199-8.4453v-112.74c28.605 2.8242 51.031 27.008 51.031 56.348 4e-3 29.359-22.418 53.562-51.031 56.391zm-220.04-112.74v112.74c-28.605-2.8242-51.027-27.031-51.027-56.391 0-29.34 22.422-53.527 51.027-56.348z"/>
 </g>
</svg>
