<?xml version="1.0" encoding="UTF-8"?>
<svg width="45" height="45" fill="none" version="1.1" viewBox="0 0 45 45" xmlns="http://www.w3.org/2000/svg">
 <path d="m4.5 9c-0.82842 0-1.5 0.67158-1.5 1.5s0.67158 1.5 1.5 1.5h36c0.8283 0 1.5-0.67158 1.5-1.5s-0.6717-1.5-1.5-1.5zm-1.5 13.5c0-0.82842 0.67158-1.5 1.5-1.5h36c0.8283 0 1.5 0.67158 1.5 1.5s-0.6717 1.5-1.5 1.5h-36c-0.82842 0-1.5-0.67158-1.5-1.5zm0 12c0-0.8283 0.67158-1.5 1.5-1.5h36c0.8283 0 1.5 0.6717 1.5 1.5s-0.6717 1.5-1.5 1.5h-36c-0.82842 0-1.5-0.6717-1.5-1.5z" clip-rule="evenodd" fill="#fff" fill-rule="evenodd" stroke-width="3"/>
</svg>
