<?xml version="1.0" encoding="UTF-8"?>
<svg width="45" height="45" fill="none" version="1.1" viewBox="0 0 45 45" xmlns="http://www.w3.org/2000/svg">
 <path d="m39.151 8.25c0-0.91129-0.73861-1.65-1.65-1.65-0.91111 0-1.65 0.73873-1.65 1.65v13.598c-0.1368-0.28344-0.3621-0.52197-0.6504-0.67422l-27-14.25c-0.46494-0.2454-1.0244-0.22947-1.4747 0.042-0.45021 0.27147-0.72547 0.75886-0.72547 1.2846v28.5c0 0.5256 0.27525 1.0131 0.72547 1.2843 0.45024 0.2715 1.0097 0.2874 1.4747 0.042l27-14.25c0.2883-0.15225 0.5136-0.39078 0.6504-0.67422v13.598c0 0.91111 0.73891 1.65 1.65 1.65 0.91141 0 1.65-0.73891 1.65-1.65v-28.5zm-30.15 26.013v-23.525l22.287 11.762-22.287 11.762z" clip-rule="evenodd" fill="#fff" fill-rule="evenodd" stroke-width="3"/>
</svg>
