<?xml version="1.0" encoding="UTF-8"?>
<svg width="15" height="15" fill="none" version="1.1" viewBox="0 0 15 15" xmlns="http://www.w3.org/2000/svg">
 <path d="m13.05 2.7499c0-0.30376-0.2462-0.55-0.55-0.55-0.3037 0-0.55 0.24624-0.55 0.55v4.5326c-0.0456-0.09448-0.1207-0.17399-0.2168-0.22474l-9-4.75c-0.15498-0.0818-0.34148-0.07649-0.49156 0.014-0.15007 0.09049-0.24182 0.25295-0.24182 0.42819v9.5c0 0.1752 0.09175 0.3377 0.24182 0.4281 0.15008 0.0905 0.33658 0.0958 0.49156 0.014l9-4.75c0.0961-0.05075 0.1712-0.13026 0.2168-0.22474v4.5325c0 0.3037 0.2463 0.55 0.55 0.55 0.3038 0 0.55-0.2463 0.55-0.55v-9.5zm-10.05 8.6708v-7.8415l7.4288 3.9208-7.4288 3.9208z" clip-rule="evenodd" fill="#fff" fill-rule="evenodd"/>
</svg>
