<?xml version="1.0" encoding="UTF-8"?>
<svg width="15" height="15" fill="none" version="1.1" viewBox="0 0 15 15" xmlns="http://www.w3.org/2000/svg">
 <path d="m1.9498 2.7499c0-0.30376 0.24624-0.55 0.55-0.55 0.30375 0 0.55 0.24624 0.55 0.55v4.5326c0.04564-0.09448 0.1207-0.17399 0.21686-0.22474l9-4.75c0.155-0.0818 0.3415-0.07649 0.4916 0.014s0.2418 0.25295 0.2418 0.42819v9.5c0 0.1752-0.0917 0.3377-0.2418 0.4281-0.1501 0.0905-0.3366 0.0958-0.4916 0.014l-9-4.75c-0.09616-0.05075-0.17122-0.13026-0.21686-0.22474v4.5325c0 0.3037-0.24625 0.55-0.55 0.55-0.30376 0-0.55-0.2463-0.55-0.55v-9.5zm2.6215 4.7501 7.4288 3.9208v-7.8415l-7.4288 3.9208z" clip-rule="evenodd" fill="#fff" fill-rule="evenodd"/>
</svg>
