<?xml version="1.0" encoding="UTF-8"?>
<svg width="45" height="45" fill="none" version="1.1" viewBox="0 0 45 45" xmlns="http://www.w3.org/2000/svg">
 <path d="m6 8.25c0-0.91129 0.73873-1.65 1.65-1.65 0.91126 0 1.65 0.73873 1.65 1.65v13.598c0.13692-0.28344 0.3621-0.52197 0.65059-0.67422l27-14.25c0.465-0.2454 1.0245-0.22947 1.4748 0.042 0.4503 0.27147 0.72541 0.75886 0.72541 1.2846v28.5c0 0.5256-0.2751 1.0131-0.72541 1.2843-0.4503 0.2715-1.0098 0.2874-1.4748 0.042l-27-14.25c-0.28848-0.15225-0.51366-0.39078-0.65059-0.67422v13.598c0 0.91111-0.73876 1.65-1.65 1.65-0.91129 0-1.65-0.73891-1.65-1.65v-28.5zm7.8646 14.25 22.287 11.762v-23.525l-22.287 11.762z" clip-rule="evenodd" fill="#fff" fill-rule="evenodd" stroke-width="3"/>
</svg>
