<?xml version="1.0" encoding="UTF-8"?>
<svg width="15" height="15" fill="none" version="1.1" viewBox="0 0 15 15" xmlns="http://www.w3.org/2000/svg">
 <path d="m7.4697 1.0508c0.17154 0.0839 0.28032 0.25819 0.28032 0.44915v12c0 0.191-0.10878 0.3653-0.28032 0.4492-0.17155 0.0839-0.37591 0.0627-0.52665-0.0545l-3.7217-2.8947h-1.7213c-0.82843 0-1.5-0.6716-1.5-1.5v-4c0-0.82842 0.67157-1.5 1.5-1.5h1.7213l3.7217-2.8947c0.15074-0.11724 0.3551-0.13838 0.52665-0.05448zm-0.71968 1.4715-3.0502 2.3724c-0.08777 0.06826-0.19578 0.10532-0.30697 0.10532h-1.8929c-0.27614 0-0.5 0.22386-0.5 0.5v4c0 0.27615 0.22386 0.5 0.5 0.5h1.8929c0.11119 0 0.2192 0.0371 0.30697 0.1053l3.0502 2.3724v-9.9554zm3.5284 1.3257c0.1839-0.12237 0.4322-0.07247 0.5546 0.11145 1.4228 2.1385 1.4228 4.9425 0 7.081-0.1224 0.1839-0.3707 0.2338-0.5546 0.1114-0.184-0.1223-0.2339-0.3706-0.1115-0.5546 1.2442-1.87 1.2442-4.3246 0-6.1947-0.1224-0.18393-0.0725-0.43223 0.1115-0.5546zm2.4001-2.4176c-0.1429-0.16854-0.3953-0.1894-0.5638-0.04658-0.1685 0.14281-0.1894 0.39522-0.0466 0.56376 2.7092 3.1973 2.7092 7.9075 0 11.105-0.1428 0.1685-0.1219 0.4209 0.0466 0.5637 0.1685 0.1429 0.4209 0.122 0.5638-0.0465 2.9621-3.4957 2.9621-8.6435 0-12.139z" clip-rule="evenodd" fill="#fff" fill-rule="evenodd"/>
</svg>
