<?xml version="1.0" encoding="UTF-8"?>
<svg width="15" height="15" fill="none" version="1.1" viewBox="0 0 15 15" xmlns="http://www.w3.org/2000/svg">
 <path d="m8 1.5c0-0.18938-0.107-0.36251-0.27639-0.44721-0.1694-0.084697-0.3721-0.066419-0.52361 0.04721l-3.8667 2.9h-1.8333c-0.82843 0-1.5 0.67158-1.5 1.5v4c0 0.8284 0.67157 1.5 1.5 1.5h1.8333l3.8667 2.9c0.15151 0.1136 0.35421 0.1319 0.52361 0.0472 0.16939-0.0847 0.27639-0.2578 0.27639-0.4472v-12zm-4.2 3.4 3.2-2.4v10l-3.2-2.4c-0.08655-0.0649-0.19181-0.1-0.3-0.1h-2c-0.27614 0-0.5-0.22386-0.5-0.5v-4c0-0.27614 0.22386-0.5 0.5-0.5h2c0.10819 0 0.21345-0.03509 0.3-0.1zm7.033-0.94051c-0.1224-0.18392-0.3707-0.23382-0.5546-0.11145-0.184 0.12237-0.2339 0.37067-0.1115 0.5546 1.2442 1.87 1.2442 4.3246 0 6.1947-0.1224 0.184-0.0725 0.4323 0.1115 0.5546 0.1839 0.1224 0.4322 0.0725 0.5546-0.1114 1.4228-2.1385 1.4228-4.9425 0-7.081z" clip-rule="evenodd" fill="#fff" fill-rule="evenodd"/>
</svg>
