<?xml version="1.0" encoding="UTF-8"?>
<svg width="15" height="15" fill="none" version="1.1" viewBox="0 0 15 15" xmlns="http://www.w3.org/2000/svg">
 <path d="m7.7236 1.0528c0.16939 0.0847 0.27639 0.25783 0.27639 0.44721v12c0 0.1894-0.107 0.3625-0.27639 0.4472-0.1694 0.0847-0.3721 0.0664-0.52361-0.0472l-3.8667-2.9h-1.8333c-0.82843 0-1.5-0.6716-1.5-1.5v-4c0-0.82842 0.67157-1.5 1.5-1.5h1.8333l3.8667-2.9c0.15151-0.11363 0.35421-0.13191 0.52361-0.04721zm-0.72361 1.4472-3.2 2.4c-0.08655 0.06491-0.19181 0.1-0.3 0.1h-2c-0.27614 0-0.5 0.22386-0.5 0.5v4c0 0.27614 0.22386 0.5 0.5 0.5h2c0.10819 0 0.21345 0.0351 0.3 0.1l3.2 2.4v-10zm7.8536 2.6464c0.1952 0.19526 0.1952 0.51184 0 0.7071l-1.6465 1.6464 1.6465 1.6464c0.1952 0.19526 0.1952 0.51184 0 0.7071-0.1953 0.19525-0.5119 0.19525-0.7072 0l-1.6464-1.6464-1.6464 1.6464c-0.1953 0.19525-0.5119 0.19525-0.7072 0-0.19522-0.19526-0.19522-0.51184 0-0.7071l1.6465-1.6464-1.6465-1.6464c-0.19522-0.19526-0.19522-0.51184 0-0.7071 0.1953-0.19527 0.5119-0.19527 0.7072 0l1.6464 1.6464 1.6464-1.6464c0.1953-0.19527 0.5119-0.19527 0.7072 0z" clip-rule="evenodd" fill="#fff" fill-rule="evenodd"/>
</svg>
