<?xml version="1.0" encoding="UTF-8"?>
<svg width="20" height="20" fill="none" version="1.1" viewBox="0 0 20 20" xmlns="http://www.w3.org/2000/svg">
 <path d="m10 0c0.36819 0 0.66668 0.29849 0.66668 0.66668v2.6667c0 0.36819-0.29849 0.66668-0.66668 0.66668s-0.66668-0.29849-0.66668-0.66668v-2.6667c0-0.36819 0.29849-0.66668 0.66668-0.66668zm-7.0712 2.929c0.26035-0.26035 0.68247-0.26035 0.94283 0l1.8856 1.8856c0.26035 0.26035 0.26035 0.68248 0 0.94283s-0.68248 0.26035-0.94283 0l-1.8856-1.8856c-0.26035-0.26037-0.26035-0.68248 0-0.94283zm-2.2623 6.4045c-0.36819 0-0.66668 0.29849-0.66668 0.66668s0.29849 0.66668 0.66668 0.66668h2.6667c0.36819 0 0.66668-0.29849 0.66668-0.66668s-0.29849-0.66668-0.66668-0.66668zm2.2623 7.7379c-0.26035-0.2604-0.26035-0.68241 0-0.94282l1.8856-1.8856c0.26035-0.26041 0.68248-0.26041 0.94283 0 0.26035 0.26027 0.26035 0.68241 0 0.94282l-1.8856 1.8856c-0.26037 0.2604-0.68248 0.2604-0.94283 0zm13.738-7.7379c-0.36814 0-0.66668 0.29849-0.66668 0.66668s0.29854 0.66668 0.66668 0.66668h2.6667c0.36814 0 0.66668-0.29849 0.66668-0.66668s-0.29854-0.66668-0.66668-0.66668zm-2.424-3.5761c-0.26041-0.26035-0.26041-0.68248 0-0.94283l1.8856-1.8856c0.2604-0.26035 0.68241-0.26035 0.94282 0s0.2604 0.68247 0 0.94283l-1.8856 1.8856c-0.2604 0.26035-0.68255 0.26035-0.94282 0zm-3.5761 10.91c0-0.36814-0.29849-0.66668-0.66668-0.66668s-0.66668 0.29854-0.66668 0.66668v2.6667c0 0.36814 0.29849 0.66668 0.66668 0.66668s0.66668-0.29854 0.66668-0.66668zm3.5761-2.424c0.26027-0.26041 0.68241-0.26041 0.94282 0l1.8856 1.8856c0.2604 0.2604 0.2604 0.68241 0 0.94282s-0.68241 0.2604-0.94282 0l-1.8856-1.8856c-0.26041-0.2604-0.26041-0.68255 0-0.94282zm-6.9095-4.2428c0-1.4728 1.1939-2.6667 2.6667-2.6667 1.4728 0 2.6667 1.1939 2.6667 2.6667 0 1.4728-1.1939 2.6667-2.6667 2.6667-1.4728 0-2.6667-1.1939-2.6667-2.6667zm2.6667-4.0001c-2.2091 0-4.0001 1.791-4.0001 4.0001 0 2.2091 1.791 4.0001 4.0001 4.0001 2.2091 0 4.0001-1.791 4.0001-4.0001 0-2.2091-1.791-4.0001-4.0001-4.0001z" clip-rule="evenodd" fill="#fff" fill-rule="evenodd" stroke-width="1.3334"/>
</svg>
