<?xml version="1.0" encoding="UTF-8"?>
<svg width="15" height="15" fill="none" version="1.1" viewBox="0 0 15 15" xmlns="http://www.w3.org/2000/svg">
 <path d="m7.5 0c0.27614 0 0.5 0.22386 0.5 0.5v2c0 0.27614-0.22386 0.5-0.5 0.5s-0.5-0.22386-0.5-0.5v-2c0-0.27614 0.22386-0.5 0.5-0.5zm-5.3033 2.1967c0.19526-0.19526 0.51184-0.19526 0.70711 0l1.4142 1.4142c0.19526 0.19526 0.19526 0.51185 0 0.70711s-0.51185 0.19526-0.70711 0l-1.4142-1.4142c-0.19526-0.19527-0.19526-0.51185 0-0.70711zm-1.6967 4.8033c-0.27614 0-0.5 0.22386-0.5 0.5s0.22386 0.5 0.5 0.5h2c0.27614 0 0.5-0.22386 0.5-0.5s-0.22386-0.5-0.5-0.5h-2zm1.6967 5.8033c-0.19526-0.1953-0.19526-0.5118 0-0.7071l1.4142-1.4142c0.19526-0.1953 0.51185-0.1953 0.70711 0 0.19526 0.1952 0.19526 0.5118 0 0.7071l-1.4142 1.4142c-0.19527 0.1953-0.51185 0.1953-0.70711 0zm10.303-5.8033c-0.2761 0-0.5 0.22386-0.5 0.5s0.2239 0.5 0.5 0.5h2c0.2761 0 0.5-0.22386 0.5-0.5s-0.2239-0.5-0.5-0.5h-2zm-1.818-2.682c-0.1953-0.19526-0.1953-0.51185 0-0.70711l1.4142-1.4142c0.1953-0.19526 0.5118-0.19526 0.7071 0s0.1953 0.51184 0 0.70711l-1.4142 1.4142c-0.1953 0.19526-0.5119 0.19526-0.7071 0zm-2.682 8.182c0-0.2761-0.22386-0.5-0.5-0.5s-0.5 0.2239-0.5 0.5v2c0 0.2761 0.22386 0.5 0.5 0.5s0.5-0.2239 0.5-0.5v-2zm2.682-1.818c0.1952-0.1953 0.5118-0.1953 0.7071 0l1.4142 1.4142c0.1953 0.1953 0.1953 0.5118 0 0.7071s-0.5118 0.1953-0.7071 0l-1.4142-1.4142c-0.1953-0.1953-0.1953-0.5119 0-0.7071zm-5.182-3.182c0-1.1046 0.89543-2 2-2s2 0.89543 2 2-0.89543 2-2 2-2-0.89543-2-2zm2-3c-1.6568 0-3 1.3432-3 3s1.3432 3 3 3 3-1.3432 3-3-1.3432-3-3-3z" clip-rule="evenodd" fill="#fff" fill-rule="evenodd"/>
</svg>
