<?xml version="1.0" encoding="UTF-8" standalone="no"?>
<svg
   width="700pt"
   height="700pt"
   version="1.1"
   viewBox="0 0 700 700"
   id="svg4"
   sodipodi:docname="menu.svg"
   inkscape:version="1.2.2 (b0a8486541, 2022-12-01)"
   xmlns:inkscape="http://www.inkscape.org/namespaces/inkscape"
   xmlns:sodipodi="http://sodipodi.sourceforge.net/DTD/sodipodi-0.dtd"
   xmlns="http://www.w3.org/2000/svg"
   xmlns:svg="http://www.w3.org/2000/svg">
  <defs
     id="defs8" />
  <sodipodi:namedview
     id="namedview6"
     pagecolor="#505050"
     bordercolor="#eeeeee"
     borderopacity="1"
     inkscape:showpageshadow="0"
     inkscape:pageopacity="0"
     inkscape:pagecheckerboard="0"
     inkscape:deskcolor="#505050"
     inkscape:document-units="pt"
     showgrid="false"
     inkscape:zoom="1.1003571"
     inkscape:cx="467.12106"
     inkscape:cy="468.93866"
     inkscape:window-width="1489"
     inkscape:window-height="1090"
     inkscape:window-x="2421"
     inkscape:window-y="176"
     inkscape:window-maximized="0"
     inkscape:current-layer="svg4" />
  <path
     d="m122.5 105c-4.6875-0.070312-9.207 1.7422-12.547 5.0312-3.3359 3.2891-5.2188 7.7812-5.2188 12.469s1.8828 9.1797 5.2188 12.469c3.3398 3.2891 7.8594 5.1016 12.547 5.0312h455c4.6875 0.070312 9.207-1.7422 12.547-5.0312 3.3359-3.2891 5.2188-7.7812 5.2188-12.469s-1.8828-9.1797-5.2188-12.469c-3.3398-3.2891-7.8594-5.1016-12.547-5.0312zm0 157.5c-4.6875-0.070312-9.207 1.7422-12.547 5.0312-3.3359 3.2891-5.2188 7.7812-5.2188 12.469s1.8828 9.1797 5.2188 12.469c3.3398 3.2891 7.8594 5.1016 12.547 5.0312h455c4.6875 0.070312 9.207-1.7422 12.547-5.0312 3.3359-3.2891 5.2188-7.7812 5.2188-12.469s-1.8828-9.1797-5.2188-12.469c-3.3398-3.2891-7.8594-5.1016-12.547-5.0312zm0 157.5c-4.6875-0.070312-9.207 1.7422-12.547 5.0312-3.3359 3.2891-5.2188 7.7812-5.2188 12.469s1.8828 9.1797 5.2188 12.469c3.3398 3.2891 7.8594 5.1016 12.547 5.0312h455c4.6875 0.070312 9.207-1.7422 12.547-5.0312 3.3359-3.2891 5.2188-7.7812 5.2188-12.469s-1.8828-9.1797-5.2188-12.469c-3.3398-3.2891-7.8594-5.1016-12.547-5.0312z"
     fill-rule="evenodd"
     id="path2"
     style="stroke:#ffffff;fill:#ffffff" />
</svg>
