<?xml version="1.0" encoding="UTF-8" standalone="no"?>
<svg
   width="700pt"
   height="700pt"
   version="1.1"
   viewBox="0 0 700 700"
   id="svg4"
   sodipodi:docname="menu.svg"
   inkscape:version="1.2.2 (b0a8486541, 2022-12-01)"
   xmlns:inkscape="http://www.inkscape.org/namespaces/inkscape"
   xmlns:sodipodi="http://sodipodi.sourceforge.net/DTD/sodipodi-0.dtd"
   xmlns="http://www.w3.org/2000/svg"
   xmlns:svg="http://www.w3.org/2000/svg">
  <defs
     id="defs8" />
  <sodipodi:namedview
     id="namedview6"
     pagecolor="#505050"
     bordercolor="#eeeeee"
     borderopacity="1"
     inkscape:showpageshadow="0"
     inkscape:pageopacity="0"
     inkscape:pagecheckerboard="0"
     inkscape:deskcolor="#505050"
     inkscape:document-units="pt"
     showgrid="false"
     inkscape:zoom="0.77806997"
     inkscape:cx="453.04409"
     inkscape:cy="318.7374"
     inkscape:window-width="2560"
     inkscape:window-height="1414"
     inkscape:window-x="1920"
     inkscape:window-y="0"
     inkscape:window-maximized="1"
     inkscape:current-layer="svg4" />
  <path
     d="M 26.133829,0.84660089 C 19.460762,0.70634114 13.026859,4.3225687 8.2720761,10.88465 3.5231302,17.446931 0.84265724,26.40939 0.84265724,35.762301 c 0,9.352911 2.68033066,18.31497 7.42941886,24.87765 4.7544979,6.56228 11.1885439,10.178507 17.8617529,10.038048 H 673.86617 c 6.67307,0.14026 13.10697,-3.475968 17.86175,-10.038048 4.74895,-6.562282 7.42942,-15.524739 7.42942,-24.87765 0,-9.352911 -2.68032,-18.314971 -7.42942,-24.877651 C 686.97343,4.3223691 680.53938,0.70614162 673.86617,0.84660089 Z m 0,314.23770911 C 19.460762,314.94405 13.026859,318.56028 8.2720761,325.12236 3.5231302,331.68463 0.84265724,340.64709 0.84265724,350 c 0,9.35291 2.68033066,18.31498 7.42941886,24.87765 4.7544979,6.56229 11.1885439,10.17851 17.8617529,10.03806 H 673.86617 c 6.67307,0.14025 13.10697,-3.47598 17.86175,-10.03806 4.74895,-6.56228 7.42942,-15.52474 7.42942,-24.87765 0,-9.35291 -2.68032,-18.31496 -7.42942,-24.87764 -4.75449,-6.56229 -11.18854,-10.17851 -17.86175,-10.03805 z m 0,314.23769 c -6.673067,-0.14025 -13.10697,3.47597 -17.8617529,10.03805 -4.7489459,6.56229 -7.42941886,15.52475 -7.42941886,24.87766 0,9.35291 2.68033066,18.31496 7.42941886,24.87764 4.7544979,6.56228 11.1885439,10.17851 17.8617529,10.03805 H 673.86617 c 6.67307,0.14026 13.10697,-3.47597 17.86175,-10.03805 4.74895,-6.56227 7.42942,-15.52473 7.42942,-24.87764 0,-9.35291 -2.68032,-18.31498 -7.42942,-24.87766 -4.75449,-6.56228 -11.18854,-10.17851 -17.86175,-10.03805 z"
     fill-rule="evenodd"
     id="path2"
     style="fill:#ffffff;stroke:#ffffff;stroke-width:1.68531" />
</svg>
