<?xml version="1.0" encoding="UTF-8"?>
<svg width="700pt" height="700pt" version="1.1" viewBox="0 0 700 700" xmlns="http://www.w3.org/2000/svg">
 <path d="m122.5 105c-4.6875-0.070312-9.207 1.7422-12.547 5.0312-3.3359 3.2891-5.2188 7.7812-5.2188 12.469s1.8828 9.1797 5.2188 12.469c3.3398 3.2891 7.8594 5.1016 12.547 5.0312h455c4.6875 0.070312 9.207-1.7422 12.547-5.0312 3.3359-3.2891 5.2188-7.7812 5.2188-12.469s-1.8828-9.1797-5.2188-12.469c-3.3398-3.2891-7.8594-5.1016-12.547-5.0312zm0 157.5c-4.6875-0.070312-9.207 1.7422-12.547 5.0312-3.3359 3.2891-5.2188 7.7812-5.2188 12.469s1.8828 9.1797 5.2188 12.469c3.3398 3.2891 7.8594 5.1016 12.547 5.0312h455c4.6875 0.070312 9.207-1.7422 12.547-5.0312 3.3359-3.2891 5.2188-7.7812 5.2188-12.469s-1.8828-9.1797-5.2188-12.469c-3.3398-3.2891-7.8594-5.1016-12.547-5.0312zm0 157.5c-4.6875-0.070312-9.207 1.7422-12.547 5.0312-3.3359 3.2891-5.2188 7.7812-5.2188 12.469s1.8828 9.1797 5.2188 12.469c3.3398 3.2891 7.8594 5.1016 12.547 5.0312h455c4.6875 0.070312 9.207-1.7422 12.547-5.0312 3.3359-3.2891 5.2188-7.7812 5.2188-12.469s-1.8828-9.1797-5.2188-12.469c-3.3398-3.2891-7.8594-5.1016-12.547-5.0312z" fill-rule="evenodd"/>
</svg>
