<?xml version="1.0" encoding="UTF-8"?>
<svg width="700pt" height="700pt" version="1.1" viewBox="0 0 700 700" xmlns="http://www.w3.org/2000/svg">
 <path d="m401.86 70.004c-2.7266 0.078125-5.3945 0.78906-7.793 2.082l-188.6 101.58h-83.094c-4.6406 0-9.0938 1.8438-12.375 5.125-3.2812 3.2852-5.125 7.7344-5.125 12.375v175c0 4.6445 1.8438 9.0938 5.125 12.375s7.7344 5.125 12.375 5.125h82.988l188.54 104.14v0.003906c5.4219 3 12.023 2.9102 17.363-0.23828 5.3359-3.1445 8.6133-8.8789 8.6133-15.074v-385c0-4.7305-1.9141-9.2617-5.3086-12.559-3.3906-3.2969-7.9766-5.082-12.703-4.9414zm-16.988 46.793v326.04l-166.52-92.012c-2.5977-1.4258-5.5156-2.168-8.4766-2.1562h-70v-140h70c2.8984-0.007813 5.7539-0.73438 8.3047-2.1172zm87.328 75.539v-0.003907c-4.668 0-9.1445 1.8672-12.43 5.1836-3.2852 3.3164-5.1094 7.8086-5.0664 12.477 0.042969 4.668 1.9492 9.1289 5.293 12.383l40.129 40.125-40.129 40.125v0.003906c-3.3906 3.2578-5.3281 7.7422-5.375 12.445-0.050781 4.7031 1.7969 9.2266 5.125 12.555 3.3242 3.3242 7.8477 5.1719 12.551 5.125s9.1875-1.9844 12.445-5.3789l40.129-40.125 40.129 40.125h-0.003906c3.2578 3.3945 7.7461 5.332 12.449 5.3789 4.6992 0.046875 9.2266-1.8008 12.551-5.125 3.3242-3.3281 5.1719-7.8516 5.125-12.555s-1.9844-9.1875-5.3789-12.445l-40.129-40.125 40.129-40.125v-0.003906c3.3945-3.2969 5.3047-7.8242 5.3047-12.555-0.003906-4.7305-1.918-9.2578-5.3125-12.555-3.3945-3.293-7.9766-5.0742-12.707-4.9336-4.5469 0.13672-8.8594 2.0352-12.031 5.2969l-40.125 40.129-40.129-40.129c-3.293-3.3867-7.8164-5.2969-12.543-5.2969z" fill-rule="evenodd"/>
</svg>
