<?xml version="1.0" encoding="UTF-8" standalone="no"?>
<svg
   width="700pt"
   height="700pt"
   version="1.1"
   viewBox="0 0 700 700"
   id="svg4"
   sodipodi:docname="mute.svg"
   inkscape:version="1.2.2 (b0a8486541, 2022-12-01)"
   xmlns:inkscape="http://www.inkscape.org/namespaces/inkscape"
   xmlns:sodipodi="http://sodipodi.sourceforge.net/DTD/sodipodi-0.dtd"
   xmlns="http://www.w3.org/2000/svg"
   xmlns:svg="http://www.w3.org/2000/svg">
  <defs
     id="defs8" />
  <sodipodi:namedview
     id="namedview6"
     pagecolor="#505050"
     bordercolor="#eeeeee"
     borderopacity="1"
     inkscape:showpageshadow="0"
     inkscape:pageopacity="0"
     inkscape:pagecheckerboard="0"
     inkscape:deskcolor="#505050"
     inkscape:document-units="pt"
     showgrid="false"
     inkscape:zoom="1.1003571"
     inkscape:cx="445.76438"
     inkscape:cy="450.76276"
     inkscape:window-width="2560"
     inkscape:window-height="1414"
     inkscape:window-x="1920"
     inkscape:window-y="0"
     inkscape:window-maximized="1"
     inkscape:current-layer="svg4" />
  <path
     d="m 424.05125,0.0241552 c -3.89316,0.13021398 -7.70251,1.3150728 -11.12719,3.4699283 L 143.63259,172.79058 H 24.987278 c -6.626055,0 -12.984532,3.07294 -17.6695751,8.54149 C 2.6326596,186.80729 0,194.22247 0,201.95665 v 291.66064 c 0,7.74068 2.6326596,15.15602 7.3177029,20.62458 4.6850431,5.46855 11.0435201,8.54149 17.6695751,8.54149 H 143.48124 l 269.20579,173.56308 v 0.007 c 7.74163,4.99989 17.16698,4.85023 24.79167,-0.39713 7.61883,-5.24072 12.29845,-14.79786 12.29845,-25.12281 V 29.179596 c 0,-7.884004 -2.73304,-15.435847 -7.57986,-20.931234 -4.84124,-5.4947199 -11.38934,-8.46982506 -18.1379,-8.23549657 z M 399.79503,78.010878 V 621.39965 L 162.03036,468.04949 c -3.70911,-2.37629 -7.87542,-3.61326 -12.10326,-3.5936 H 49.977984 V 231.12738 H 149.9271 c 4.13846,-0.0133 8.21567,-1.22394 11.85782,-3.5286 z m 124.6908,125.895732 v -0.007 c -6.66518,0 -13.05693,3.11194 -17.74811,8.63916 -4.69075,5.52721 -7.29543,13.01406 -7.23403,20.79457 0.0614,7.77984 2.78315,15.21452 7.55758,20.6379 l 57.29797,66.87362 -57.29797,66.87362 v 0.007 c -4.84125,5.42955 -7.6077,12.9034 -7.67466,20.74124 -0.0725,7.83834 2.56569,15.37735 7.3177,20.92456 4.74644,5.54022 11.20529,8.61966 17.92088,8.5415 6.71558,-0.0782 13.11832,-3.30727 17.76952,-8.96465 l 57.29797,-66.87362 57.29797,66.87362 h -0.006 c 4.65163,5.65738 11.06023,8.88648 17.77524,8.96465 6.70972,0.0782 13.17415,-3.00128 17.92087,-8.5415 4.74644,-5.54671 7.38467,-13.08572 7.31771,-20.92456 -0.067,-7.83884 -2.83342,-15.31219 -7.68024,-20.74124 l -57.29797,-66.87362 57.29797,-66.87362 v -0.007 c 4.84682,-5.49472 7.57429,-13.04006 7.57429,-20.92456 -0.006,-7.88401 -2.73861,-15.42935 -7.58542,-20.92457 -4.84682,-5.48822 -11.38935,-8.45683 -18.14362,-8.2225 -6.49227,0.22786 -12.64985,3.39193 -17.1784,8.82798 l -57.29226,66.88029 -57.29797,-66.88029 c -4.70189,-5.64438 -11.16061,-8.82798 -17.90945,-8.82798 z"
     fill-rule="evenodd"
     id="path2"
     style="fill:#ffffff;stroke-width:1.54262" />
</svg>
