<?xml version="1.0" encoding="UTF-8"?>
<svg width="700pt" height="700pt" version="1.1" viewBox="0 0 700 700" xmlns="http://www.w3.org/2000/svg">
 <path d="m192.5 35c-4.6406 0-9.0938 1.8438-12.375 5.125s-5.125 7.7344-5.125 12.375v455c0 4.6406 1.8438 9.0938 5.125 12.375s7.7344 5.125 12.375 5.125h105c4.6406 0 9.0938-1.8438 12.375-5.125s5.125-7.7344 5.125-12.375v-455c0-4.6406-1.8438-9.0938-5.125-12.375s-7.7344-5.125-12.375-5.125zm210 0c-4.6406 0-9.0938 1.8438-12.375 5.125s-5.125 7.7344-5.125 12.375v455c0 4.6406 1.8438 9.0938 5.125 12.375s7.7344 5.125 12.375 5.125h105c4.6406 0 9.0938-1.8438 12.375-5.125s5.125-7.7344 5.125-12.375v-455c0-4.6406-1.8438-9.0938-5.125-12.375s-7.7344-5.125-12.375-5.125zm-192.5 35h70v420h-70zm210 0h70v420h-70z"/>
</svg>
