<?xml version="1.0" encoding="UTF-8" standalone="no"?>
<svg
   width="700pt"
   height="700pt"
   version="1.1"
   viewBox="0 0 700 700"
   id="svg4"
   sodipodi:docname="pause.svg"
   inkscape:version="1.2.2 (b0a8486541, 2022-12-01)"
   xmlns:inkscape="http://www.inkscape.org/namespaces/inkscape"
   xmlns:sodipodi="http://sodipodi.sourceforge.net/DTD/sodipodi-0.dtd"
   xmlns="http://www.w3.org/2000/svg"
   xmlns:svg="http://www.w3.org/2000/svg">
  <defs
     id="defs8" />
  <sodipodi:namedview
     id="namedview6"
     pagecolor="#505050"
     bordercolor="#eeeeee"
     borderopacity="1"
     inkscape:showpageshadow="0"
     inkscape:pageopacity="0"
     inkscape:pagecheckerboard="0"
     inkscape:deskcolor="#505050"
     inkscape:document-units="pt"
     showgrid="false"
     inkscape:zoom="1.1003571"
     inkscape:cx="445.76438"
     inkscape:cy="466.21229"
     inkscape:window-width="2560"
     inkscape:window-height="1414"
     inkscape:window-x="1920"
     inkscape:window-y="0"
     inkscape:window-maximized="1"
     inkscape:current-layer="svg4" />
  <path
     d="M 35,0 C 25.7188,0 16.8124,2.634 10.25,7.3214286 3.6876,12.008857 0,18.370571 0,25 v 650 c 0,6.62943 3.6876,12.99114 10.25,17.67857 C 16.8124,697.366 25.7188,700 35,700 h 210 c 9.2812,0 18.1876,-2.634 24.75,-7.32143 C 276.3124,687.99114 280,681.62943 280,675 V 25 C 280,18.370571 276.3124,12.008857 269.75,7.3214286 263.1876,2.634 254.2812,0 245,0 Z M 455,0 C 445.7188,0 436.8124,2.634 430.25,7.3214286 423.6876,12.008857 420,18.370571 420,25 v 650 c 0,6.62943 3.6876,12.99114 10.25,17.67857 C 436.8124,697.366 445.7188,700 455,700 h 210 c 9.2812,0 18.1876,-2.634 24.75,-7.32143 C 696.3124,687.99114 700,681.62943 700,675 V 25 C 700,18.370571 696.3124,12.008857 689.75,7.3214286 683.1876,2.634 674.2812,0 665,0 Z M 70,50 H 210 V 650 H 70 Z m 420,0 H 630 V 650 H 490 Z"
     id="path2"
     style="fill:#ffffff;stroke-width:1.6903" />
</svg>
