<?xml version="1.0" encoding="UTF-8" standalone="no"?>
<svg
   width="700pt"
   height="700pt"
   version="1.1"
   viewBox="0 0 700 700"
   id="svg4"
   sodipodi:docname="pause.svg"
   inkscape:version="1.2.2 (b0a8486541, 2022-12-01)"
   xmlns:inkscape="http://www.inkscape.org/namespaces/inkscape"
   xmlns:sodipodi="http://sodipodi.sourceforge.net/DTD/sodipodi-0.dtd"
   xmlns="http://www.w3.org/2000/svg"
   xmlns:svg="http://www.w3.org/2000/svg">
  <defs
     id="defs8" />
  <sodipodi:namedview
     id="namedview6"
     pagecolor="#505050"
     bordercolor="#eeeeee"
     borderopacity="1"
     inkscape:showpageshadow="0"
     inkscape:pageopacity="0"
     inkscape:pagecheckerboard="0"
     inkscape:deskcolor="#505050"
     inkscape:document-units="pt"
     showgrid="false"
     inkscape:zoom="1.1003571"
     inkscape:cx="466.66667"
     inkscape:cy="466.21227"
     inkscape:window-width="2560"
     inkscape:window-height="1414"
     inkscape:window-x="1920"
     inkscape:window-y="0"
     inkscape:window-maximized="1"
     inkscape:current-layer="svg4" />
  <path
     d="m192.5 35c-4.6406 0-9.0938 1.8438-12.375 5.125s-5.125 7.7344-5.125 12.375v455c0 4.6406 1.8438 9.0938 5.125 12.375s7.7344 5.125 12.375 5.125h105c4.6406 0 9.0938-1.8438 12.375-5.125s5.125-7.7344 5.125-12.375v-455c0-4.6406-1.8438-9.0938-5.125-12.375s-7.7344-5.125-12.375-5.125zm210 0c-4.6406 0-9.0938 1.8438-12.375 5.125s-5.125 7.7344-5.125 12.375v455c0 4.6406 1.8438 9.0938 5.125 12.375s7.7344 5.125 12.375 5.125h105c4.6406 0 9.0938-1.8438 12.375-5.125s5.125-7.7344 5.125-12.375v-455c0-4.6406-1.8438-9.0938-5.125-12.375s-7.7344-5.125-12.375-5.125zm-192.5 35h70v420h-70zm210 0h70v420h-70z"
     id="path2"
     style="fill:#ffffff" />
</svg>
