<?xml version="1.0" encoding="UTF-8" standalone="no"?>
<svg
   width="700pt"
   height="700pt"
   version="1.1"
   viewBox="0 0 700 700"
   id="svg4"
   sodipodi:docname="play.svg"
   inkscape:version="1.2.2 (b0a8486541, 2022-12-01)"
   xmlns:inkscape="http://www.inkscape.org/namespaces/inkscape"
   xmlns:sodipodi="http://sodipodi.sourceforge.net/DTD/sodipodi-0.dtd"
   xmlns="http://www.w3.org/2000/svg"
   xmlns:svg="http://www.w3.org/2000/svg">
  <defs
     id="defs8" />
  <sodipodi:namedview
     id="namedview6"
     pagecolor="#505050"
     bordercolor="#eeeeee"
     borderopacity="1"
     inkscape:showpageshadow="0"
     inkscape:pageopacity="0"
     inkscape:pagecheckerboard="0"
     inkscape:deskcolor="#505050"
     inkscape:document-units="pt"
     showgrid="false"
     inkscape:zoom="1.1003571"
     inkscape:cx="466.66667"
     inkscape:cy="466.21227"
     inkscape:window-width="2560"
     inkscape:window-height="1414"
     inkscape:window-x="1920"
     inkscape:window-y="0"
     inkscape:window-maximized="1"
     inkscape:current-layer="svg4" />
  <path
     d="m158.09 35.004c-4.7422-0.15625-9.3438 1.6172-12.754 4.918-3.4062 3.3008-5.332 7.8398-5.3281 12.586v455c0 4.1289 1.4648 8.1289 4.1289 11.285 2.668 3.1562 6.3633 5.2695 10.438 5.9609 4.0742 0.69141 8.2578-0.078125 11.82-2.1758l385-227.5c5.332-3.1484 8.6055-8.8789 8.6055-15.074 0-6.1914-3.2734-11.922-8.6055-15.07l-385-227.5c-2.5234-1.4922-5.3789-2.3281-8.3047-2.4297zm16.918 48.16 333.12 196.84-333.12 196.84z"
     fill-rule="evenodd"
     id="path2"
     style="fill:#ffffff" />
</svg>
