<?xml version="1.0" encoding="UTF-8"?>
<svg width="700pt" height="700pt" version="1.1" viewBox="0 0 700 700" xmlns="http://www.w3.org/2000/svg">
 <path d="m158.09 35.004c-4.7422-0.15625-9.3438 1.6172-12.754 4.918-3.4062 3.3008-5.332 7.8398-5.3281 12.586v455c0 4.1289 1.4648 8.1289 4.1289 11.285 2.668 3.1562 6.3633 5.2695 10.438 5.9609 4.0742 0.69141 8.2578-0.078125 11.82-2.1758l385-227.5c5.332-3.1484 8.6055-8.8789 8.6055-15.074 0-6.1914-3.2734-11.922-8.6055-15.07l-385-227.5c-2.5234-1.4922-5.3789-2.3281-8.3047-2.4297zm16.918 48.16 333.12 196.84-333.12 196.84z" fill-rule="evenodd"/>
</svg>
