<?xml version="1.0" encoding="UTF-8" standalone="no"?>
<svg
   width="700pt"
   height="700pt"
   version="1.1"
   viewBox="0 0 700 700"
   id="svg4"
   sodipodi:docname="play.svg"
   inkscape:version="1.2.2 (b0a8486541, 2022-12-01)"
   xmlns:inkscape="http://www.inkscape.org/namespaces/inkscape"
   xmlns:sodipodi="http://sodipodi.sourceforge.net/DTD/sodipodi-0.dtd"
   xmlns="http://www.w3.org/2000/svg"
   xmlns:svg="http://www.w3.org/2000/svg">
  <defs
     id="defs8" />
  <sodipodi:namedview
     id="namedview6"
     pagecolor="#505050"
     bordercolor="#eeeeee"
     borderopacity="1"
     inkscape:showpageshadow="0"
     inkscape:pageopacity="0"
     inkscape:pagecheckerboard="0"
     inkscape:deskcolor="#505050"
     inkscape:document-units="pt"
     showgrid="false"
     inkscape:zoom="1.1003571"
     inkscape:cx="445.76438"
     inkscape:cy="466.21229"
     inkscape:window-width="2560"
     inkscape:window-height="1414"
     inkscape:window-x="1920"
     inkscape:window-y="0"
     inkscape:window-maximized="1"
     inkscape:current-layer="svg4" />
  <path
     d="M 30.137388,0.01359364 C 22.233578,-0.20961762 14.564106,2.3238481 8.880337,7.039213 3.2032344,11.754578 -0.00649027,18.238776 9.8535228e-6,25.01897 v 649.99122 c 0,5.89835 2.4413774464772,11.61255 6.8816243464772,16.12121 4.4467468,4.50879 10.6056918,7.52775 17.3969808,8.51545 6.790456,0.98772 13.763249,-0.11157 19.700356,-3.10824 L 685.65724,371.543 C 694.54407,367.04535 700,358.85903 700,350.00901 c 0,-8.84474 -5.45577,-17.0312 -14.34276,-21.52828 L 43.978971,3.4851182 C 39.773229,1.3534327 35.013976,0.15930596 30.137555,0.01416506 Z M 58.334564,68.812664 613.5446,350.00887 58.334564,631.20507 Z"
     fill-rule="evenodd"
     id="path2"
     style="fill:#ffffff;stroke-width:1.54304" />
</svg>
