<?xml version="1.0" encoding="UTF-8" standalone="no"?>
<svg
   width="700pt"
   height="700pt"
   version="1.1"
   viewBox="0 0 700 700"
   id="svg4"
   sodipodi:docname="stop.svg"
   inkscape:version="1.2.2 (b0a8486541, 2022-12-01)"
   xmlns:inkscape="http://www.inkscape.org/namespaces/inkscape"
   xmlns:sodipodi="http://sodipodi.sourceforge.net/DTD/sodipodi-0.dtd"
   xmlns="http://www.w3.org/2000/svg"
   xmlns:svg="http://www.w3.org/2000/svg">
  <defs
     id="defs8" />
  <sodipodi:namedview
     id="namedview6"
     pagecolor="#505050"
     bordercolor="#eeeeee"
     borderopacity="1"
     inkscape:showpageshadow="0"
     inkscape:pageopacity="0"
     inkscape:pagecheckerboard="0"
     inkscape:deskcolor="#505050"
     inkscape:document-units="pt"
     showgrid="false"
     inkscape:zoom="1.1003571"
     inkscape:cx="445.76438"
     inkscape:cy="505.29051"
     inkscape:window-width="2560"
     inkscape:window-height="1414"
     inkscape:window-x="1920"
     inkscape:window-y="0"
     inkscape:window-maximized="1"
     inkscape:current-layer="svg4" />
  <path
     d="M 25,0 C 18.370572,0 12.008857,2.634 7.3214285,7.3214285 2.634,12.008857 0,18.370572 0,25 v 650 c 0,6.62942 2.634,12.98542 7.3214285,17.67857 C 12.008857,697.366 18.370572,700 25,700 h 650 c 6.62942,0 12.98542,-2.634 17.67857,-7.32143 C 697.366,687.99114 700,681.62942 700,675 V 25 C 700,18.370572 697.366,12.008857 692.67857,7.3214285 687.99114,2.634 681.62942,0 675,0 Z M 49.999999,49.999999 H 650 V 650 H 49.999999 Z"
     id="path2"
     style="fill:#ffffff;stroke-width:1.42857" />
</svg>
