<?xml version="1.0" encoding="UTF-8" standalone="no"?>
<svg
   width="653pt"
   height="560pt"
   version="1.1"
   viewBox="0 0 653 560"
   id="svg4"
   sodipodi:docname="volume.svg"
   inkscape:version="1.2.2 (b0a8486541, 2022-12-01)"
   xmlns:inkscape="http://www.inkscape.org/namespaces/inkscape"
   xmlns:sodipodi="http://sodipodi.sourceforge.net/DTD/sodipodi-0.dtd"
   xmlns="http://www.w3.org/2000/svg"
   xmlns:svg="http://www.w3.org/2000/svg">
  <defs
     id="defs8" />
  <sodipodi:namedview
     id="namedview6"
     pagecolor="#505050"
     bordercolor="#eeeeee"
     borderopacity="1"
     inkscape:showpageshadow="0"
     inkscape:pageopacity="0"
     inkscape:pagecheckerboard="0"
     inkscape:deskcolor="#505050"
     inkscape:document-units="pt"
     showgrid="false"
     inkscape:zoom="1.1003571"
     inkscape:cx="372.15191"
     inkscape:cy="363.51835"
     inkscape:window-width="2560"
     inkscape:window-height="1414"
     inkscape:window-x="1920"
     inkscape:window-y="0"
     inkscape:window-maximized="1"
     inkscape:current-layer="svg4" />
  <path
     d="M 395.78271,0.00630007 C 392.14908,0.11046443 388.59367,1.0583564 385.39729,2.7822383 L 134.05761,138.17924 H 23.32155 c -6.184342,0 -12.118943,2.45835 -16.4916673,6.83838 C 2.4571586,149.39246 0,155.32474 0,161.51726 v 233.32815 c 0,6.18734 2.4571586,12.11947 6.8298827,16.4943 4.3727243,4.37484 10.3073253,6.83839 16.4916673,6.83839 h 110.5948 l 251.25971,138.90359 c 7.23075,4.00511 16.0439,3.88018 23.1603,-0.32812 7.1164,-4.20829 11.4734,-11.86426 11.45782,-20.13554 V 23.296063 C 419.78348,16.99407 417.22774,10.968204 412.70402,6.5831007 408.18551,2.1977313 402.08432,-0.17714919 395.79124,0.01031332 Z M 488.47587,56.791707 v -0.0052 c -7.31403,0.3125 -14.06089,4.046844 -18.20946,10.083111 -4.15417,6.031065 -5.23176,13.666363 -2.9152,20.614209 2.31656,6.952912 7.76168,12.405991 14.70058,14.739673 74.58231,26.42075 124.30653,96.80053 124.30653,175.9561 0,79.16491 -49.71489,149.54336 -124.30653,175.95611 v -0.005 c -5.85118,2.05208 -10.64569,6.34359 -13.3266,11.93719 -2.68092,5.58841 -3.02967,12.02053 -0.96827,17.86894 2.0667,5.84361 6.37172,10.63004 11.96796,13.30183 5.5961,2.66661 12.01993,2.99475 17.86031,0.91666 C 590.64751,465.20266 653,376.94996 653,278.18681 653,179.429 590.67682,91.217606 497.62517,58.258338 v -0.0052 c -2.92559,-1.093723 -6.03855,-1.588498 -9.15684,-1.453034 z m -115.3324,5.609209 V 497.07127 L 151.22893,374.434 v -0.005 c -3.45666,-1.91661 -7.34523,-2.92179 -11.29643,-2.92179 H 46.646299 V 184.84434 H 139.9325 v 0.005 c 3.86259,0.005 7.66799,-0.9531 11.06735,-2.78114 z m 115.46834,99.028474 v -0.005 c -6.48113,0.28126 -12.551,3.24474 -16.75155,8.18729 -4.20613,4.94255 -6.16354,11.41121 -5.40353,17.85427 0.76003,6.44772 4.16457,12.28612 9.40151,16.11431 23.45749,17.63961 37.21587,45.239 37.21587,74.60235 0,29.36335 -13.79569,56.96274 -37.26251,74.60234 v -0.005 c -4.95056,3.72392 -8.21984,9.26019 -9.08914,15.39566 -0.86934,6.13013 0.73401,12.35906 4.45615,17.31162 3.72212,4.94776 9.26092,8.21861 15.39356,9.08313 6.13237,0.86977 12.35309,-0.73957 17.30326,-4.4687 35.15956,-26.43675 55.84112,-67.9305 55.84112,-111.92952 0,-43.99368 -20.69755,-85.49277 -55.84112,-111.92418 v 0.005 c -4.36233,-3.36447 -9.76587,-5.07283 -15.26296,-4.83324 z"
     fill-rule="evenodd"
     id="path2"
     style="fill:#ffffff;stroke-width:1.33299" />
</svg>
