<?xml version="1.0" encoding="UTF-8" standalone="no"?>
<svg
   width="700pt"
   height="700pt"
   version="1.1"
   viewBox="0 0 700 700"
   id="svg4"
   sodipodi:docname="volume.svg"
   inkscape:version="1.2.2 (b0a8486541, 2022-12-01)"
   xmlns:inkscape="http://www.inkscape.org/namespaces/inkscape"
   xmlns:sodipodi="http://sodipodi.sourceforge.net/DTD/sodipodi-0.dtd"
   xmlns="http://www.w3.org/2000/svg"
   xmlns:svg="http://www.w3.org/2000/svg">
  <defs
     id="defs8" />
  <sodipodi:namedview
     id="namedview6"
     pagecolor="#505050"
     bordercolor="#eeeeee"
     borderopacity="1"
     inkscape:showpageshadow="0"
     inkscape:pageopacity="0"
     inkscape:pagecheckerboard="0"
     inkscape:deskcolor="#505050"
     inkscape:document-units="pt"
     showgrid="false"
     inkscape:zoom="1.1003571"
     inkscape:cx="466.66667"
     inkscape:cy="466.21227"
     inkscape:window-width="2560"
     inkscape:window-height="1414"
     inkscape:window-x="1920"
     inkscape:window-y="0"
     inkscape:window-maximized="1"
     inkscape:current-layer="svg4" />
  <path
     d="m401.99 70.004c-2.7266 0.078125-5.3945 0.78906-7.793 2.082l-188.6 101.55h-83.094c-4.6406 0-9.0938 1.8438-12.375 5.1289-3.2812 3.2812-5.125 7.7305-5.125 12.375v175c0 4.6406 1.8438 9.0898 5.125 12.371s7.7344 5.1289 12.375 5.1289h82.988l188.54 104.18c5.4258 3.0039 12.039 2.9102 17.379-0.24609s8.6094-8.8984 8.5977-15.102v-385c-0.007812-4.7266-1.9258-9.2461-5.3203-12.535-3.3906-3.2891-7.9688-5.0703-12.691-4.9297zm69.555 42.59v-0.003906c-5.4883 0.23438-10.551 3.0352-13.664 7.5625-3.1172 4.5234-3.9258 10.25-2.1875 15.461 1.7383 5.2148 5.8242 9.3047 11.031 11.055 55.965 19.816 93.277 72.602 93.277 131.97 0 59.375-37.305 112.16-93.277 131.97v-0.003907c-4.3906 1.5391-7.9883 4.7578-10 8.9531-2.0117 4.1914-2.2734 9.0156-0.72656 13.402 1.5508 4.3828 4.7812 7.9727 8.9805 9.9766 4.1992 2 9.0195 2.2461 13.402 0.6875 69.832-24.715 116.62-90.906 116.62-164.98 0-74.07-46.766-140.23-116.59-164.95v-0.003906c-2.1953-0.82031-4.5312-1.1914-6.8711-1.0898zm-86.543 4.207v326.01l-166.52-91.98v-0.003906c-2.5938-1.4375-5.5117-2.1914-8.4766-2.1914h-70v-140h70v0.003907c2.8984 0.003906 5.7539-0.71484 8.3047-2.0859zm86.645 74.273v-0.003907c-4.8633 0.21094-9.418 2.4336-12.57 6.1406-3.1562 3.707-4.625 8.5586-4.0547 13.391 0.57031 4.8359 3.125 9.2148 7.0547 12.086 17.602 13.23 27.926 33.93 27.926 55.953s-10.352 42.723-27.961 55.953v-0.003906c-3.7148 2.793-6.168 6.9453-6.8203 11.547-0.65234 4.5977 0.55078 9.2695 3.3438 12.984 2.793 3.7109 6.9492 6.1641 11.551 6.8125 4.6016 0.65234 9.2695-0.55469 12.984-3.3516 26.383-19.828 41.902-50.949 41.902-83.949 0-32.996-15.531-64.121-41.902-83.945v0.003906c-3.2734-2.5234-7.3281-3.8047-11.453-3.625z"
     fill-rule="evenodd"
     id="path2"
     style="fill:#ffffff" />
</svg>
