<?xml version="1.0" encoding="UTF-8"?>
<svg width="15" height="15" fill="none" version="1.1" viewBox="0 0 15 15" xmlns="http://www.w3.org/2000/svg">
 <path d="m1.5 3c-0.27614 0-0.5 0.22386-0.5 0.5s0.22386 0.5 0.5 0.5h12c0.2761 0 0.5-0.22386 0.5-0.5s-0.2239-0.5-0.5-0.5h-12zm-0.5 4.5c0-0.27614 0.22386-0.5 0.5-0.5h12c0.2761 0 0.5 0.22386 0.5 0.5s-0.2239 0.5-0.5 0.5h-12c-0.27614 0-0.5-0.22386-0.5-0.5zm0 4c0-0.2761 0.22386-0.5 0.5-0.5h12c0.2761 0 0.5 0.2239 0.5 0.5s-0.2239 0.5-0.5 0.5h-12c-0.27614 0-0.5-0.2239-0.5-0.5z" clip-rule="evenodd" fill="#000" fill-rule="evenodd"/>
</svg>
