<?xml version="1.0" encoding="UTF-8"?>
<svg width="20" height="20" fill="none" version="1.1" viewBox="0 0 20 20" xmlns="http://www.w3.org/2000/svg">
 <path d="m3.9991 0.57142c0-0.31559-0.25578-0.57142-0.5713-0.57142-0.31553 0-0.5713 0.25583-0.5713 0.57142v0.85713h-0.85695c-0.31553 0-0.5713 0.25582-0.5713 0.57142 0 0.31558 0.25577 0.57142 0.5713 0.57142h0.85695v0.85713c0 0.31558 0.25577 0.57142 0.5713 0.57142 0.31551 0 0.5713-0.25584 0.5713-0.57142v-0.85713h0.85695c0.31551 0 0.5713-0.25584 0.5713-0.57142 0-0.31559-0.25578-0.57142-0.5713-0.57142h-0.85695zm4.2847 4.2857c0-0.3156-0.25578-0.57142-0.5713-0.57142-0.31553 0-0.5713 0.25582-0.5713 0.57142v0.85713h-0.85695c-0.31553 0-0.5713 0.25582-0.5713 0.57142 0 0.31558 0.25577 0.57142 0.5713 0.57142h0.85695v0.85713c0 0.31558 0.25577 0.57142 0.5713 0.57142 0.31551 0 0.5713-0.25584 0.5713-0.57142v-0.85713h0.85695c0.31551 0 0.5713-0.25584 0.5713-0.57142 0-0.31559-0.25578-0.57142-0.5713-0.57142h-0.85695zm-5.713 4.2856c0-0.3156-0.25578-0.57142-0.5713-0.57142-0.31553 0-0.5713 0.25582-0.5713 0.57142v0.85713h-0.85695c-0.31552 0-0.5713 0.25582-0.5713 0.57142 0 0.31558 0.25578 0.57142 0.5713 0.57142h0.85695v0.85713c0 0.31558 0.25577 0.5714 0.5713 0.5714 0.31551 0 0.5713-0.25582 0.5713-0.5714v-0.85713h0.85695c0.31551 0 0.5713-0.25584 0.5713-0.57142 0-0.3156-0.25578-0.57142-0.5713-0.57142h-0.85695zm9.4894-7.8829-0.42544-0.057505c-0.30483-0.034157-0.48455 0.31987-0.30967 0.57193 0.20105 0.28978 0.38627 0.59139 0.55442 0.90357 0.71589 1.3291 1.1221 2.8498 1.1221 4.4653 0 4.6739-3.4003 8.5535-7.8615 9.2991-0.34493 0.05757-0.6984 0.09643-1.0552 0.11557-0.30629 0.01629-0.4753 0.37556-0.26118 0.59513 0.097549 0.10014 0.1973 0.198 0.29916 0.29371l0.10306 0.09528 0.37134 0.32142 0.26852 0.21242 0.17299 0.12871 0.26701 0.187 0.2512 0.164c0.17276 0.10871 0.34931 0.21214 0.52956 0.30985l0.37618 0.19328 0.37216 0.17071 0.43253 0.17442 0.34752 0.12257c0.19131 0.06314 0.38534 0.12043 0.58112 0.17128 0.14861 0.03857 0.29865 0.07371 0.45058 0.10528 0.17979 0.03729 0.36146 0.06957 0.54472 0.09657l0.45271 0.05528 0.38124 0.02957c0.18143 0.01043 0.36423 0.01571 0.54827 0.01571 5.2061 0 9.4264-4.2212 9.4264-9.4284 0-0.35684-0.01985-0.70905-0.05842-1.0556l-0.052555-0.39604c-0.049274-0.31891-0.11454-0.63253-0.19481-0.93948-0.096835-0.37047-0.21552-0.73205-0.35449-1.0823l-0.16139-0.38212-0.11026-0.237-0.10583-0.21251c-0.2268-0.44132-0.48746-0.86243-0.77896-1.2606l-0.21852-0.28672-0.28408-0.34171-0.23366-0.25815-0.17082-0.17728-0.22938-0.22435-0.31721-0.2866-0.45832-0.37132-0.34878-0.25275-0.41719-0.27217-0.45932-0.26502-0.46746-0.23594-0.16211-0.074313-0.34124-0.14451-0.39558-0.14814-0.36027-0.11757-0.46405-0.12816-0.37814-0.085756zm2.6553 6.169c0-1.4633-0.28993-2.8599-0.81518-4.1345 2.7563 1.2627 4.6714 4.0465 4.6714 7.2773 0 4.4182-3.5809 7.9998-7.9981 7.9998-1.2379 0-2.4098-0.28085-3.4559-0.78284 2.0829-0.65442 3.8952-1.92 5.2269-3.5865 0.19483 0.26685 0.50997 0.44014 0.8656 0.44014 0.59159 0 1.0712-0.47971 1.0712-1.0714 0-0.51021-0.35656-0.9371-0.83402-1.0451 0.08864-0.16644 0.17308-0.33545 0.25316-0.50691 0.27277 0.16901 0.59444 0.26658 0.93893 0.26658 0.98592 0 1.7853-0.79949 1.7853-1.7857 0-0.98594-0.79896-1.7852-1.7846-1.7857 0.0497-0.42151 0.07527-0.8504 0.07527-1.2853z" clip-rule="evenodd" fill="currentColor" fill-rule="evenodd" stroke-width="1.4284"/>
</svg>
